<mxfile host="app.diagrams.net" modified="2023-09-08T08:21:51.535Z" agent="Mozilla/5.0 (Windows NT 10.0; Win64; x64) AppleWebKit/537.36 (KHTML, like Gecko) Chrome/116.0.0.0 Safari/537.36" etag="T8tImqGUlurgdnmgoTyF" version="21.7.2" type="device">
  <diagram name="第 1 页" id="6PWb6RppGZlQPulVqseF">
    <mxGraphModel dx="2051" dy="830" grid="0" gridSize="10" guides="1" tooltips="1" connect="1" arrows="1" fold="1" page="1" pageScale="1" pageWidth="827" pageHeight="1169" math="0" shadow="0">
      <root>
        <mxCell id="0" />
        <mxCell id="1" parent="0" />
        <mxCell id="e6xa8H-MMy1VjOaZG1Zn-18" value="" style="shape=ext;double=1;rounded=0;whiteSpace=wrap;html=1;fillColor=#fff2cc;strokeColor=#d6b656;" parent="1" vertex="1">
          <mxGeometry x="-221" y="489" width="2234" height="600" as="geometry" />
        </mxCell>
        <mxCell id="e6xa8H-MMy1VjOaZG1Zn-21" value="" style="shape=ext;double=1;rounded=0;whiteSpace=wrap;html=1;fillColor=#d5e8d4;strokeColor=#82b366;" parent="1" vertex="1">
          <mxGeometry x="-155" y="553" width="842" height="508" as="geometry" />
        </mxCell>
        <mxCell id="e6xa8H-MMy1VjOaZG1Zn-64" value="" style="shape=ext;double=1;rounded=0;whiteSpace=wrap;html=1;fillColor=#f5f5f5;fontColor=#333333;strokeColor=#666666;" parent="1" vertex="1">
          <mxGeometry x="-124.5" y="616" width="771" height="220" as="geometry" />
        </mxCell>
        <mxCell id="e6xa8H-MMy1VjOaZG1Zn-6" value="首页" style="rounded=0;whiteSpace=wrap;html=1;fillColor=#647687;fontColor=#ffffff;strokeColor=#314354;" parent="1" vertex="1">
          <mxGeometry x="-96" y="660" width="120" height="60" as="geometry" />
        </mxCell>
        <mxCell id="e6xa8H-MMy1VjOaZG1Zn-7" value="志愿活动" style="rounded=0;whiteSpace=wrap;html=1;fillColor=#647687;fontColor=#ffffff;strokeColor=#314354;" parent="1" vertex="1">
          <mxGeometry x="50" y="660" width="120" height="60" as="geometry" />
        </mxCell>
        <mxCell id="e6xa8H-MMy1VjOaZG1Zn-8" value="志愿团队" style="rounded=0;whiteSpace=wrap;html=1;fillColor=#647687;fontColor=#ffffff;strokeColor=#314354;" parent="1" vertex="1">
          <mxGeometry x="201" y="660" width="120" height="60" as="geometry" />
        </mxCell>
        <mxCell id="e6xa8H-MMy1VjOaZG1Zn-9" value="志愿动态" style="rounded=0;whiteSpace=wrap;html=1;fillColor=#647687;fontColor=#ffffff;strokeColor=#314354;" parent="1" vertex="1">
          <mxGeometry x="352" y="660" width="120" height="60" as="geometry" />
        </mxCell>
        <mxCell id="e6xa8H-MMy1VjOaZG1Zn-17" value="" style="shape=ext;double=1;rounded=0;whiteSpace=wrap;html=1;fillColor=#f8cecc;strokeColor=#b85450;" parent="1" vertex="1">
          <mxGeometry x="963" y="553" width="1005" height="507" as="geometry" />
        </mxCell>
        <mxCell id="e6xa8H-MMy1VjOaZG1Zn-12" value="404" style="rounded=0;whiteSpace=wrap;html=1;fillColor=#647687;fontColor=#ffffff;strokeColor=#314354;" parent="1" vertex="1">
          <mxGeometry x="500" y="660" width="120" height="60" as="geometry" />
        </mxCell>
        <mxCell id="e6xa8H-MMy1VjOaZG1Zn-66" value="" style="shape=ext;double=1;rounded=0;whiteSpace=wrap;html=1;fillColor=#ffe6cc;strokeColor=#d79b00;" parent="1" vertex="1">
          <mxGeometry x="-109" y="901" width="692" height="138" as="geometry" />
        </mxCell>
        <mxCell id="e6xa8H-MMy1VjOaZG1Zn-49" value="" style="edgeStyle=orthogonalEdgeStyle;rounded=0;orthogonalLoop=1;jettySize=auto;html=1;" parent="1" source="e6xa8H-MMy1VjOaZG1Zn-20" target="e6xa8H-MMy1VjOaZG1Zn-35" edge="1">
          <mxGeometry relative="1" as="geometry" />
        </mxCell>
        <mxCell id="e6xa8H-MMy1VjOaZG1Zn-52" value="&lt;font color=&quot;#666666&quot;&gt;嵌套路由&lt;/font&gt;" style="edgeLabel;html=1;align=center;verticalAlign=middle;resizable=0;points=[];labelBackgroundColor=none;fontColor=#FFFFFF;" parent="e6xa8H-MMy1VjOaZG1Zn-49" vertex="1" connectable="0">
          <mxGeometry x="-0.1653" y="-1" relative="1" as="geometry">
            <mxPoint x="1" y="11" as="offset" />
          </mxGeometry>
        </mxCell>
        <mxCell id="e6xa8H-MMy1VjOaZG1Zn-20" value="志愿活动详情" style="rounded=0;whiteSpace=wrap;html=1;fillColor=#647687;fontColor=#ffffff;strokeColor=#314354;" parent="1" vertex="1">
          <mxGeometry x="-70" y="751" width="120" height="60" as="geometry" />
        </mxCell>
        <mxCell id="e6xa8H-MMy1VjOaZG1Zn-23" value="无权限路由" style="text;strokeColor=none;fillColor=none;html=1;fontSize=24;fontStyle=1;verticalAlign=middle;align=center;" parent="1" vertex="1">
          <mxGeometry x="209" y="567" width="100" height="40" as="geometry" />
        </mxCell>
        <mxCell id="e6xa8H-MMy1VjOaZG1Zn-24" value="权限路由" style="text;strokeColor=none;fillColor=none;html=1;fontSize=24;fontStyle=1;verticalAlign=middle;align=center;" parent="1" vertex="1">
          <mxGeometry x="1397" y="566" width="100" height="40" as="geometry" />
        </mxCell>
        <mxCell id="e6xa8H-MMy1VjOaZG1Zn-25" value="系统路由" style="text;strokeColor=none;fillColor=none;html=1;fontSize=24;fontStyle=1;verticalAlign=middle;align=center;" parent="1" vertex="1">
          <mxGeometry x="775" y="499" width="100" height="40" as="geometry" />
        </mxCell>
        <mxCell id="e6xa8H-MMy1VjOaZG1Zn-51" value="" style="edgeStyle=orthogonalEdgeStyle;rounded=0;orthogonalLoop=1;jettySize=auto;html=1;" parent="1" source="e6xa8H-MMy1VjOaZG1Zn-26" target="e6xa8H-MMy1VjOaZG1Zn-36" edge="1">
          <mxGeometry relative="1" as="geometry" />
        </mxCell>
        <mxCell id="e6xa8H-MMy1VjOaZG1Zn-54" value="嵌套路由" style="edgeLabel;html=1;align=center;verticalAlign=middle;resizable=0;points=[];fontColor=#666666;labelBackgroundColor=none;" parent="e6xa8H-MMy1VjOaZG1Zn-51" vertex="1" connectable="0">
          <mxGeometry x="-0.0653" y="-2" relative="1" as="geometry">
            <mxPoint y="4" as="offset" />
          </mxGeometry>
        </mxCell>
        <mxCell id="e6xa8H-MMy1VjOaZG1Zn-79" value="" style="shape=ext;double=1;rounded=0;whiteSpace=wrap;html=1;fillColor=#f5f5f5;fontColor=#333333;strokeColor=#666666;" parent="1" vertex="1">
          <mxGeometry x="981" y="771" width="958" height="131" as="geometry" />
        </mxCell>
        <mxCell id="e6xa8H-MMy1VjOaZG1Zn-84" value="" style="shape=ext;double=1;rounded=0;whiteSpace=wrap;html=1;fillColor=#e1d5e7;strokeColor=#9673a6;" parent="1" vertex="1">
          <mxGeometry x="1298" y="785" width="624" height="104" as="geometry" />
        </mxCell>
        <mxCell id="e6xa8H-MMy1VjOaZG1Zn-26" value="志愿团队详情" style="rounded=0;whiteSpace=wrap;html=1;fillColor=#647687;fontColor=#ffffff;strokeColor=#314354;" parent="1" vertex="1">
          <mxGeometry x="428" y="754" width="120" height="60" as="geometry" />
        </mxCell>
        <mxCell id="e6xa8H-MMy1VjOaZG1Zn-10" value="团队管理" style="rounded=0;whiteSpace=wrap;html=1;fillColor=#647687;fontColor=#ffffff;strokeColor=#314354;" parent="1" vertex="1">
          <mxGeometry x="1017" y="806.5" width="120" height="60" as="geometry" />
        </mxCell>
        <mxCell id="e6xa8H-MMy1VjOaZG1Zn-27" value="志愿活动发布" style="rounded=0;whiteSpace=wrap;html=1;fillColor=#647687;fontColor=#ffffff;strokeColor=#314354;" parent="1" vertex="1">
          <mxGeometry x="1639" y="809" width="120" height="60" as="geometry" />
        </mxCell>
        <mxCell id="e6xa8H-MMy1VjOaZG1Zn-28" value="志愿活动修改" style="rounded=0;whiteSpace=wrap;html=1;fillColor=#647687;fontColor=#ffffff;strokeColor=#314354;" parent="1" vertex="1">
          <mxGeometry x="1793" y="809" width="120" height="60" as="geometry" />
        </mxCell>
        <mxCell id="e6xa8H-MMy1VjOaZG1Zn-78" value="" style="shape=ext;double=1;rounded=0;whiteSpace=wrap;html=1;fillColor=#fff2cc;strokeColor=#d6b656;" parent="1" vertex="1">
          <mxGeometry x="981" y="611" width="958" height="145" as="geometry" />
        </mxCell>
        <mxCell id="e6xa8H-MMy1VjOaZG1Zn-30" value="志愿活动报名" style="rounded=0;whiteSpace=wrap;html=1;fillColor=#647687;fontColor=#ffffff;strokeColor=#314354;" parent="1" vertex="1">
          <mxGeometry x="1795" y="654" width="120" height="60" as="geometry" />
        </mxCell>
        <mxCell id="e6xa8H-MMy1VjOaZG1Zn-32" value="志愿团队修改" style="rounded=0;whiteSpace=wrap;html=1;fillColor=#647687;fontColor=#ffffff;strokeColor=#314354;" parent="1" vertex="1">
          <mxGeometry x="1485" y="809" width="120" height="60" as="geometry" />
        </mxCell>
        <mxCell id="e6xa8H-MMy1VjOaZG1Zn-33" value="志愿团队申请创建" style="rounded=0;whiteSpace=wrap;html=1;fillColor=#647687;fontColor=#ffffff;strokeColor=#314354;" parent="1" vertex="1">
          <mxGeometry x="1327" y="654" width="120" height="60" as="geometry" />
        </mxCell>
        <mxCell id="e6xa8H-MMy1VjOaZG1Zn-34" value="申请加入志愿团队" style="rounded=0;whiteSpace=wrap;html=1;fillColor=#647687;fontColor=#ffffff;strokeColor=#314354;" parent="1" vertex="1">
          <mxGeometry x="1639" y="654" width="120" height="60" as="geometry" />
        </mxCell>
        <mxCell id="e6xa8H-MMy1VjOaZG1Zn-35" value="热门志愿活动" style="rounded=0;whiteSpace=wrap;html=1;fillColor=#647687;fontColor=#ffffff;strokeColor=#314354;" parent="1" vertex="1">
          <mxGeometry x="-70" y="921" width="120" height="60" as="geometry" />
        </mxCell>
        <mxCell id="e6xa8H-MMy1VjOaZG1Zn-36" value="热门志愿团队" style="rounded=0;whiteSpace=wrap;html=1;fillColor=#647687;fontColor=#ffffff;strokeColor=#314354;" parent="1" vertex="1">
          <mxGeometry x="428" y="921" width="120" height="60" as="geometry" />
        </mxCell>
        <mxCell id="e6xa8H-MMy1VjOaZG1Zn-50" value="" style="edgeStyle=orthogonalEdgeStyle;rounded=0;orthogonalLoop=1;jettySize=auto;html=1;" parent="1" source="e6xa8H-MMy1VjOaZG1Zn-37" target="e6xa8H-MMy1VjOaZG1Zn-47" edge="1">
          <mxGeometry relative="1" as="geometry" />
        </mxCell>
        <mxCell id="e6xa8H-MMy1VjOaZG1Zn-53" value="嵌套路由" style="edgeLabel;html=1;align=center;verticalAlign=middle;resizable=0;points=[];fontColor=#666666;labelBackgroundColor=none;" parent="e6xa8H-MMy1VjOaZG1Zn-50" vertex="1" connectable="0">
          <mxGeometry x="-0.283" y="1" relative="1" as="geometry">
            <mxPoint x="-3" y="19" as="offset" />
          </mxGeometry>
        </mxCell>
        <mxCell id="e6xa8H-MMy1VjOaZG1Zn-37" value="志愿动态详情" style="rounded=0;whiteSpace=wrap;html=1;fillColor=#647687;fontColor=#ffffff;strokeColor=#314354;" parent="1" vertex="1">
          <mxGeometry x="179" y="751" width="120" height="60" as="geometry" />
        </mxCell>
        <mxCell id="e6xa8H-MMy1VjOaZG1Zn-38" value="成员管理" style="rounded=0;whiteSpace=wrap;html=1;fillColor=#647687;fontColor=#ffffff;strokeColor=#314354;" parent="1" vertex="1">
          <mxGeometry x="1327" y="809" width="120" height="60" as="geometry" />
        </mxCell>
        <mxCell id="e6xa8H-MMy1VjOaZG1Zn-80" value="" style="shape=ext;double=1;rounded=0;whiteSpace=wrap;html=1;" parent="1" vertex="1">
          <mxGeometry x="983.5" y="916.5" width="954.5" height="125.5" as="geometry" />
        </mxCell>
        <mxCell id="e6xa8H-MMy1VjOaZG1Zn-90" value="" style="shape=ext;double=1;rounded=0;whiteSpace=wrap;html=1;fillColor=#dae8fc;strokeColor=#6c8ebf;" parent="1" vertex="1">
          <mxGeometry x="1168" y="926" width="760" height="103" as="geometry" />
        </mxCell>
        <mxCell id="e6xa8H-MMy1VjOaZG1Zn-39" value="志愿活动管理" style="rounded=0;whiteSpace=wrap;html=1;fillColor=#647687;fontColor=#ffffff;strokeColor=#314354;" parent="1" vertex="1">
          <mxGeometry x="1648" y="949.25" width="120" height="60" as="geometry" />
        </mxCell>
        <mxCell id="e6xa8H-MMy1VjOaZG1Zn-96" value="" style="edgeStyle=orthogonalEdgeStyle;rounded=0;orthogonalLoop=1;jettySize=auto;html=1;" parent="1" source="e6xa8H-MMy1VjOaZG1Zn-11" target="e6xa8H-MMy1VjOaZG1Zn-42" edge="1">
          <mxGeometry relative="1" as="geometry" />
        </mxCell>
        <mxCell id="e6xa8H-MMy1VjOaZG1Zn-97" value="嵌套路由" style="edgeLabel;html=1;align=center;verticalAlign=middle;resizable=0;points=[];labelBackgroundColor=none;fontColor=#666666;fontSize=15;" parent="e6xa8H-MMy1VjOaZG1Zn-96" vertex="1" connectable="0">
          <mxGeometry x="0.1223" y="-2" relative="1" as="geometry">
            <mxPoint x="-9" y="-16" as="offset" />
          </mxGeometry>
        </mxCell>
        <mxCell id="e6xa8H-MMy1VjOaZG1Zn-11" value="系统管理" style="rounded=0;whiteSpace=wrap;html=1;fillColor=#647687;fontColor=#ffffff;strokeColor=#314354;" parent="1" vertex="1">
          <mxGeometry x="983.5" y="949.25" width="120" height="60" as="geometry" />
        </mxCell>
        <mxCell id="e6xa8H-MMy1VjOaZG1Zn-40" value="志愿团队管理" style="rounded=0;whiteSpace=wrap;html=1;fillColor=#647687;fontColor=#ffffff;strokeColor=#314354;" parent="1" vertex="1">
          <mxGeometry x="1327" y="949.25" width="120" height="60" as="geometry" />
        </mxCell>
        <mxCell id="e6xa8H-MMy1VjOaZG1Zn-41" value="志愿动态管理" style="rounded=0;whiteSpace=wrap;html=1;fillColor=#647687;fontColor=#ffffff;strokeColor=#314354;" parent="1" vertex="1">
          <mxGeometry x="1483" y="949.25" width="120" height="60" as="geometry" />
        </mxCell>
        <mxCell id="e6xa8H-MMy1VjOaZG1Zn-42" value="用户管理" style="rounded=0;whiteSpace=wrap;html=1;fillColor=#647687;fontColor=#ffffff;strokeColor=#314354;" parent="1" vertex="1">
          <mxGeometry x="1176" y="949.25" width="120" height="60" as="geometry" />
        </mxCell>
        <mxCell id="e6xa8H-MMy1VjOaZG1Zn-43" value="权限管理" style="rounded=0;whiteSpace=wrap;html=1;fillColor=#647687;fontColor=#ffffff;strokeColor=#314354;" parent="1" vertex="1">
          <mxGeometry x="1801" y="949.25" width="120" height="60" as="geometry" />
        </mxCell>
        <mxCell id="e6xa8H-MMy1VjOaZG1Zn-44" value="志愿动态发布" style="rounded=0;whiteSpace=wrap;html=1;fillColor=#647687;fontColor=#ffffff;strokeColor=#314354;" parent="1" vertex="1">
          <mxGeometry x="1171" y="654" width="120" height="60" as="geometry" />
        </mxCell>
        <mxCell id="e6xa8H-MMy1VjOaZG1Zn-45" value="志愿动态修改" style="rounded=0;whiteSpace=wrap;html=1;fillColor=#647687;fontColor=#ffffff;strokeColor=#314354;" parent="1" vertex="1">
          <mxGeometry x="1483" y="654" width="120" height="60" as="geometry" />
        </mxCell>
        <mxCell id="e6xa8H-MMy1VjOaZG1Zn-47" value="热门志愿动态" style="rounded=0;whiteSpace=wrap;html=1;fillColor=#647687;fontColor=#ffffff;strokeColor=#314354;" parent="1" vertex="1">
          <mxGeometry x="179" y="921" width="120" height="60" as="geometry" />
        </mxCell>
        <mxCell id="e6xa8H-MMy1VjOaZG1Zn-55" value="&lt;font style=&quot;font-size: 15px;&quot;&gt;user&lt;/font&gt;" style="shape=umlActor;verticalLabelPosition=bottom;verticalAlign=top;html=1;outlineConnect=0;" parent="1" vertex="1">
          <mxGeometry x="818" y="616" width="30" height="60" as="geometry" />
        </mxCell>
        <mxCell id="e6xa8H-MMy1VjOaZG1Zn-56" value="&lt;font style=&quot;font-size: 15px;&quot;&gt;team_admin&lt;/font&gt;" style="shape=umlActor;verticalLabelPosition=bottom;verticalAlign=top;html=1;outlineConnect=0;" parent="1" vertex="1">
          <mxGeometry x="818" y="768" width="30" height="60" as="geometry" />
        </mxCell>
        <mxCell id="e6xa8H-MMy1VjOaZG1Zn-57" value="&lt;font style=&quot;font-size: 15px;&quot;&gt;system_admin&lt;/font&gt;" style="shape=umlActor;verticalLabelPosition=bottom;verticalAlign=top;html=1;outlineConnect=0;" parent="1" vertex="1">
          <mxGeometry x="818" y="912" width="30" height="60" as="geometry" />
        </mxCell>
        <mxCell id="e6xa8H-MMy1VjOaZG1Zn-59" value="个人管理" style="rounded=0;whiteSpace=wrap;html=1;fillColor=#647687;fontColor=#ffffff;strokeColor=#314354;" parent="1" vertex="1">
          <mxGeometry x="1017" y="654" width="120" height="60" as="geometry" />
        </mxCell>
        <mxCell id="e6xa8H-MMy1VjOaZG1Zn-65" value="一级路由" style="text;html=1;align=center;verticalAlign=middle;whiteSpace=wrap;rounded=0;fontColor=#666666;fontSize=21;" parent="1" vertex="1">
          <mxGeometry x="201" y="624" width="114" height="30" as="geometry" />
        </mxCell>
        <mxCell id="e6xa8H-MMy1VjOaZG1Zn-67" value="&lt;font style=&quot;font-size: 20px;&quot;&gt;二级路由&lt;/font&gt;" style="text;html=1;strokeColor=none;fillColor=none;align=center;verticalAlign=middle;whiteSpace=wrap;rounded=0;fontColor=#666666;" parent="1" vertex="1">
          <mxGeometry x="194.5" y="995" width="89" height="30" as="geometry" />
        </mxCell>
        <mxCell id="e6xa8H-MMy1VjOaZG1Zn-72" value="" style="endArrow=classic;html=1;rounded=0;entryX=1;entryY=0.5;entryDx=0;entryDy=0;exitX=0;exitY=0.3333333333333333;exitDx=0;exitDy=0;exitPerimeter=0;" parent="1" source="e6xa8H-MMy1VjOaZG1Zn-55" target="e6xa8H-MMy1VjOaZG1Zn-21" edge="1">
          <mxGeometry width="50" height="50" relative="1" as="geometry">
            <mxPoint x="803" y="691" as="sourcePoint" />
            <mxPoint x="760" y="790" as="targetPoint" />
          </mxGeometry>
        </mxCell>
        <mxCell id="e6xa8H-MMy1VjOaZG1Zn-73" value="include" style="edgeLabel;html=1;align=center;verticalAlign=middle;resizable=0;points=[];labelBackgroundColor=none;fontColor=#666666;fontSize=15;" parent="e6xa8H-MMy1VjOaZG1Zn-72" vertex="1" connectable="0">
          <mxGeometry x="-0.124" y="-3" relative="1" as="geometry">
            <mxPoint as="offset" />
          </mxGeometry>
        </mxCell>
        <mxCell id="e6xa8H-MMy1VjOaZG1Zn-74" value="" style="endArrow=classic;html=1;rounded=0;entryX=1.001;entryY=0.527;entryDx=0;entryDy=0;entryPerimeter=0;exitX=-0.012;exitY=0.827;exitDx=0;exitDy=0;exitPerimeter=0;" parent="1" source="e6xa8H-MMy1VjOaZG1Zn-56" target="e6xa8H-MMy1VjOaZG1Zn-21" edge="1">
          <mxGeometry width="50" height="50" relative="1" as="geometry">
            <mxPoint x="725" y="883" as="sourcePoint" />
            <mxPoint x="775" y="833" as="targetPoint" />
          </mxGeometry>
        </mxCell>
        <mxCell id="e6xa8H-MMy1VjOaZG1Zn-75" value="include" style="edgeLabel;align=center;verticalAlign=middle;resizable=0;points=[];labelBackgroundColor=none;fontColor=#666666;fontSize=15;" parent="e6xa8H-MMy1VjOaZG1Zn-74" vertex="1" connectable="0">
          <mxGeometry x="0.0438" y="-1" relative="1" as="geometry">
            <mxPoint x="-2" y="-11" as="offset" />
          </mxGeometry>
        </mxCell>
        <mxCell id="e6xa8H-MMy1VjOaZG1Zn-76" value="" style="endArrow=classic;html=1;rounded=0;entryX=1.008;entryY=0.547;entryDx=0;entryDy=0;entryPerimeter=0;" parent="1" target="e6xa8H-MMy1VjOaZG1Zn-21" edge="1">
          <mxGeometry width="50" height="50" relative="1" as="geometry">
            <mxPoint x="811" y="936" as="sourcePoint" />
            <mxPoint x="760" y="790" as="targetPoint" />
          </mxGeometry>
        </mxCell>
        <mxCell id="e6xa8H-MMy1VjOaZG1Zn-77" value="include" style="edgeLabel;html=1;align=center;verticalAlign=middle;resizable=0;points=[];labelBackgroundColor=none;fontColor=#666666;fontSize=15;" parent="e6xa8H-MMy1VjOaZG1Zn-76" vertex="1" connectable="0">
          <mxGeometry x="0.1645" y="-2" relative="1" as="geometry">
            <mxPoint as="offset" />
          </mxGeometry>
        </mxCell>
        <mxCell id="e6xa8H-MMy1VjOaZG1Zn-81" value="" style="endArrow=classic;html=1;rounded=0;exitX=1;exitY=0.3333333333333333;exitDx=0;exitDy=0;exitPerimeter=0;entryX=0;entryY=0.5;entryDx=0;entryDy=0;" parent="1" source="e6xa8H-MMy1VjOaZG1Zn-55" target="e6xa8H-MMy1VjOaZG1Zn-78" edge="1">
          <mxGeometry width="50" height="50" relative="1" as="geometry">
            <mxPoint x="998" y="843" as="sourcePoint" />
            <mxPoint x="1048" y="793" as="targetPoint" />
          </mxGeometry>
        </mxCell>
        <mxCell id="e6xa8H-MMy1VjOaZG1Zn-83" value="&lt;font style=&quot;font-size: 21px;&quot;&gt;一级路由&lt;/font&gt;" style="text;html=1;strokeColor=none;fillColor=none;align=center;verticalAlign=middle;whiteSpace=wrap;rounded=0;" parent="1" vertex="1">
          <mxGeometry x="1349" y="616" width="180" height="30" as="geometry" />
        </mxCell>
        <mxCell id="e6xa8H-MMy1VjOaZG1Zn-86" value="" style="endArrow=classic;html=1;rounded=0;entryX=0;entryY=0.5;entryDx=0;entryDy=0;exitX=1;exitY=0.5;exitDx=0;exitDy=0;" parent="1" source="e6xa8H-MMy1VjOaZG1Zn-10" target="e6xa8H-MMy1VjOaZG1Zn-84" edge="1">
          <mxGeometry width="50" height="50" relative="1" as="geometry">
            <mxPoint x="1136" y="840" as="sourcePoint" />
            <mxPoint x="1186" y="790" as="targetPoint" />
          </mxGeometry>
        </mxCell>
        <mxCell id="e6xa8H-MMy1VjOaZG1Zn-87" value="嵌套路由" style="edgeLabel;html=1;align=center;verticalAlign=middle;resizable=0;points=[];labelBackgroundColor=none;fontSize=15;fontColor=#666666;" parent="e6xa8H-MMy1VjOaZG1Zn-86" vertex="1" connectable="0">
          <mxGeometry x="-0.1278" y="2" relative="1" as="geometry">
            <mxPoint x="1" y="-16" as="offset" />
          </mxGeometry>
        </mxCell>
        <mxCell id="e6xa8H-MMy1VjOaZG1Zn-88" value="&lt;font style=&quot;font-size: 15px;&quot;&gt;一级路由&lt;/font&gt;" style="text;html=1;strokeColor=none;fillColor=none;align=center;verticalAlign=middle;whiteSpace=wrap;rounded=0;" parent="1" vertex="1">
          <mxGeometry x="1020" y="779" width="82" height="30" as="geometry" />
        </mxCell>
        <mxCell id="e6xa8H-MMy1VjOaZG1Zn-89" value="&lt;font style=&quot;font-size: 15px;&quot;&gt;二级路由&lt;/font&gt;" style="text;html=1;strokeColor=none;fillColor=none;align=center;verticalAlign=middle;whiteSpace=wrap;rounded=0;" parent="1" vertex="1">
          <mxGeometry x="1583" y="784" width="71" height="30" as="geometry" />
        </mxCell>
        <mxCell id="e6xa8H-MMy1VjOaZG1Zn-91" value="&lt;font style=&quot;font-size: 15px;&quot;&gt;二级路由&lt;/font&gt;" style="text;html=1;strokeColor=none;fillColor=none;align=center;verticalAlign=middle;whiteSpace=wrap;rounded=0;" parent="1" vertex="1">
          <mxGeometry x="1583" y="926" width="75" height="30" as="geometry" />
        </mxCell>
        <mxCell id="e6xa8H-MMy1VjOaZG1Zn-92" value="&lt;font style=&quot;font-size: 15px;&quot;&gt;一级路由&lt;/font&gt;" style="text;html=1;strokeColor=none;fillColor=none;align=center;verticalAlign=middle;whiteSpace=wrap;rounded=0;" parent="1" vertex="1">
          <mxGeometry x="1024" y="919.25" width="74" height="30" as="geometry" />
        </mxCell>
        <mxCell id="e6xa8H-MMy1VjOaZG1Zn-94" value="" style="endArrow=classic;html=1;rounded=0;entryX=0;entryY=0.5;entryDx=0;entryDy=0;" parent="1" target="e6xa8H-MMy1VjOaZG1Zn-79" edge="1">
          <mxGeometry width="50" height="50" relative="1" as="geometry">
            <mxPoint x="850" y="801" as="sourcePoint" />
            <mxPoint x="900" y="751" as="targetPoint" />
          </mxGeometry>
        </mxCell>
        <mxCell id="e6xa8H-MMy1VjOaZG1Zn-95" value="" style="endArrow=classic;html=1;rounded=0;entryX=0.003;entryY=0.412;entryDx=0;entryDy=0;entryPerimeter=0;" parent="1" target="e6xa8H-MMy1VjOaZG1Zn-80" edge="1">
          <mxGeometry width="50" height="50" relative="1" as="geometry">
            <mxPoint x="848" y="941" as="sourcePoint" />
            <mxPoint x="898" y="891" as="targetPoint" />
          </mxGeometry>
        </mxCell>
        <mxCell id="ozV14h3gtZizoFji5paC-1" value="全局模态框" style="rounded=0;whiteSpace=wrap;html=1;" parent="1" vertex="1">
          <mxGeometry x="-507" y="1316" width="120" height="60" as="geometry" />
        </mxCell>
        <mxCell id="ozV14h3gtZizoFji5paC-2" value="隐藏" style="rounded=0;whiteSpace=wrap;html=1;" parent="1" vertex="1">
          <mxGeometry x="451" y="1403" width="120" height="60" as="geometry" />
        </mxCell>
        <mxCell id="ozV14h3gtZizoFji5paC-8" style="edgeStyle=orthogonalEdgeStyle;rounded=0;orthogonalLoop=1;jettySize=auto;html=1;entryX=-0.07;entryY=0.504;entryDx=0;entryDy=0;entryPerimeter=0;" parent="1" source="ozV14h3gtZizoFji5paC-3" target="ozV14h3gtZizoFji5paC-2" edge="1">
          <mxGeometry relative="1" as="geometry">
            <Array as="points">
              <mxPoint x="11" y="1438" />
              <mxPoint x="443" y="1438" />
            </Array>
          </mxGeometry>
        </mxCell>
        <mxCell id="ozV14h3gtZizoFji5paC-10" style="edgeStyle=orthogonalEdgeStyle;rounded=0;orthogonalLoop=1;jettySize=auto;html=1;" parent="1" source="ozV14h3gtZizoFji5paC-3" target="ozV14h3gtZizoFji5paC-4" edge="1">
          <mxGeometry relative="1" as="geometry" />
        </mxCell>
        <mxCell id="ozV14h3gtZizoFji5paC-11" value="token不存在" style="edgeLabel;html=1;align=center;verticalAlign=middle;resizable=0;points=[];" parent="ozV14h3gtZizoFji5paC-10" vertex="1" connectable="0">
          <mxGeometry x="-0.2688" relative="1" as="geometry">
            <mxPoint x="1" as="offset" />
          </mxGeometry>
        </mxCell>
        <mxCell id="ozV14h3gtZizoFji5paC-3" value="hasToken" style="rhombus;whiteSpace=wrap;html=1;" parent="1" vertex="1">
          <mxGeometry x="-70" y="1292" width="161" height="80" as="geometry" />
        </mxCell>
        <mxCell id="ozV14h3gtZizoFji5paC-4" value="显示" style="rounded=0;whiteSpace=wrap;html=1;" parent="1" vertex="1">
          <mxGeometry x="449" y="1302" width="120" height="60" as="geometry" />
        </mxCell>
        <mxCell id="ozV14h3gtZizoFji5paC-12" style="edgeStyle=orthogonalEdgeStyle;rounded=0;orthogonalLoop=1;jettySize=auto;html=1;entryX=0;entryY=0.5;entryDx=0;entryDy=0;" parent="1" source="ozV14h3gtZizoFji5paC-6" target="ozV14h3gtZizoFji5paC-3" edge="1">
          <mxGeometry relative="1" as="geometry">
            <Array as="points">
              <mxPoint x="-234" y="1332" />
            </Array>
          </mxGeometry>
        </mxCell>
        <mxCell id="ozV14h3gtZizoFji5paC-6" value="第一次初始化触发一次" style="rounded=0;whiteSpace=wrap;html=1;" parent="1" vertex="1">
          <mxGeometry x="-294" y="1155" width="120" height="60" as="geometry" />
        </mxCell>
        <mxCell id="ozV14h3gtZizoFji5paC-13" style="edgeStyle=orthogonalEdgeStyle;rounded=0;orthogonalLoop=1;jettySize=auto;html=1;entryX=-0.053;entryY=0.602;entryDx=0;entryDy=0;entryPerimeter=0;" parent="1" source="ozV14h3gtZizoFji5paC-7" target="ozV14h3gtZizoFji5paC-3" edge="1">
          <mxGeometry relative="1" as="geometry">
            <Array as="points">
              <mxPoint x="-235" y="1336" />
              <mxPoint x="-78" y="1336" />
            </Array>
          </mxGeometry>
        </mxCell>
        <mxCell id="ozV14h3gtZizoFji5paC-7" value="当用户点击页面中的权限按钮" style="rounded=0;whiteSpace=wrap;html=1;" parent="1" vertex="1">
          <mxGeometry x="-294" y="1530" width="120" height="60" as="geometry" />
        </mxCell>
        <mxCell id="ozV14h3gtZizoFji5paC-9" value="token存在" style="text;html=1;align=center;verticalAlign=middle;resizable=0;points=[];autosize=1;strokeColor=none;fillColor=none;" parent="1" vertex="1">
          <mxGeometry x="133" y="1413" width="71" height="26" as="geometry" />
        </mxCell>
        <mxCell id="ozV14h3gtZizoFji5paC-15" value="token是否有效" style="rhombus;whiteSpace=wrap;html=1;" parent="1" vertex="1">
          <mxGeometry x="261" y="1401" width="80" height="80" as="geometry" />
        </mxCell>
        <mxCell id="UZWe0hBf-RjEoTSBp2Or-1" value="" style="rounded=0;whiteSpace=wrap;html=1;" vertex="1" parent="1">
          <mxGeometry x="-297" y="1710" width="120" height="60" as="geometry" />
        </mxCell>
      </root>
    </mxGraphModel>
  </diagram>
</mxfile>
